<svg width="1600" height="900" viewBox="0 0 1600 900" fill="none" xmlns="http://www.w3.org/2000/svg">
  <defs>
    <linearGradient id="bg" x1="120" y1="80" x2="1450" y2="820" gradientUnits="userSpaceOnUse">
      <stop stop-color="#0B1020"/>
      <stop offset="0.45" stop-color="#12395C"/>
      <stop offset="1" stop-color="#1F7A8C"/>
    </linearGradient>
    <radialGradient id="glowA" cx="0" cy="0" r="1" gradientUnits="userSpaceOnUse" gradientTransform="translate(1120 250) rotate(90) scale(320 420)">
      <stop stop-color="#8CF7FF" stop-opacity="0.55"/>
      <stop offset="1" stop-color="#8CF7FF" stop-opacity="0"/>
    </radialGradient>
    <radialGradient id="glowB" cx="0" cy="0" r="1" gradientUnits="userSpaceOnUse" gradientTransform="translate(470 640) rotate(90) scale(340 460)">
      <stop stop-color="#84F0B7" stop-opacity="0.4"/>
      <stop offset="1" stop-color="#84F0B7" stop-opacity="0"/>
    </radialGradient>
    <linearGradient id="ring" x1="402" y1="202" x2="1188" y2="698" gradientUnits="userSpaceOnUse">
      <stop stop-color="#D5FFEA"/>
      <stop offset="0.55" stop-color="#93E7FF"/>
      <stop offset="1" stop-color="#59D2FF"/>
    </linearGradient>
  </defs>
  <rect width="1600" height="900" rx="36" fill="url(#bg)"/>
  <rect x="60" y="60" width="1480" height="780" rx="30" stroke="rgba(255,255,255,0.12)"/>
  <ellipse cx="1120" cy="250" rx="420" ry="320" fill="url(#glowA)"/>
  <ellipse cx="470" cy="640" rx="460" ry="340" fill="url(#glowB)"/>

  <g opacity="0.22" stroke="#D6FFF7" stroke-width="2">
    <path d="M238 708C392 526 616 420 818 418C1014 416 1180 490 1362 662"/>
    <path d="M256 240C430 320 620 360 810 356C1026 352 1198 286 1348 176"/>
    <path d="M314 132C476 258 640 320 858 314C1048 308 1198 244 1300 140"/>
  </g>

  <g stroke="url(#ring)" stroke-width="6" stroke-linecap="round">
    <ellipse cx="800" cy="450" rx="372" ry="214" opacity="0.88"/>
    <ellipse cx="800" cy="450" rx="276" ry="148" opacity="0.62"/>
  </g>

  <g fill="#E6FFF8">
    <circle cx="514" cy="412" r="12"/>
    <circle cx="620" cy="292" r="10" opacity="0.8"/>
    <circle cx="842" cy="244" r="11" opacity="0.9"/>
    <circle cx="1070" cy="318" r="13" opacity="0.85"/>
    <circle cx="1168" cy="480" r="12"/>
    <circle cx="1032" cy="640" r="10" opacity="0.8"/>
    <circle cx="786" cy="676" r="12" opacity="0.95"/>
    <circle cx="572" cy="596" r="11" opacity="0.82"/>
  </g>

  <g stroke="#DFFCF4" stroke-width="3" opacity="0.72">
    <path d="M514 412L620 292L842 244L1070 318L1168 480L1032 640L786 676L572 596L514 412Z"/>
    <path d="M620 292L786 676" opacity="0.4"/>
    <path d="M842 244L572 596" opacity="0.45"/>
    <path d="M1070 318L514 412" opacity="0.32"/>
    <path d="M1168 480L620 292" opacity="0.28"/>
  </g>

  <g>
    <rect x="154" y="124" width="438" height="68" rx="34" fill="rgba(8,16,32,0.46)" stroke="rgba(230,255,248,0.18)"/>
    <text x="188" y="167" fill="#F4FFFD" font-family="Segoe UI, Arial, sans-serif" font-size="32" font-weight="700">Cohere multilingual families</text>
    <text x="160" y="770" fill="#D9FFF6" font-family="Segoe UI, Arial, sans-serif" font-size="78" font-weight="800">Aya Expanse · Command R</text>
    <text x="160" y="822" fill="#C2F6EF" font-family="Segoe UI, Arial, sans-serif" font-size="30" font-weight="500">Multilingual chat, tool use, RAG, and enterprise reasoning patterns for DGX Spark</text>
  </g>
</svg>
