<svg width="1600" height="900" viewBox="0 0 1600 900" fill="none" xmlns="http://www.w3.org/2000/svg">
  <rect width="1600" height="900" fill="#061616"/>
  <path d="M0 0H1600V900H0V0Z" fill="url(#bg)"/>
  <path d="M1010 150C1198 206 1324 350 1350 548C1194 464 1018 437 838 468C658 499 497 586 368 718C355 513 425 330 556 216C687 102 840 99 1010 150Z" fill="#13D6B3" fill-opacity="0.18"/>
  <path d="M1208 214C1318 309 1377 430 1384 578C1287 515 1165 484 1020 485C875 486 743 525 624 602C658 459 724 351 822 278C920 205 1049 184 1208 214Z" fill="#7DF7DA" fill-opacity="0.14"/>
  <path d="M1600 253C1488 318 1392 399 1312 496C1231 594 1174 703 1140 824" stroke="#C9FFF3" stroke-opacity="0.32" stroke-width="2"/>
  <path d="M1522 103C1385 174 1269 265 1175 376C1081 487 1013 615 972 760" stroke="#C9FFF3" stroke-opacity="0.18" stroke-width="2"/>
  <g opacity="0.55">
    <circle cx="1220" cy="269" r="4" fill="#C9FFF3"/>
    <circle cx="1308" cy="392" r="4" fill="#C9FFF3"/>
    <circle cx="1146" cy="514" r="4" fill="#C9FFF3"/>
    <circle cx="1016" cy="344" r="4" fill="#C9FFF3"/>
    <path d="M1220 269L1308 392L1146 514L1016 344L1220 269Z" stroke="#C9FFF3" stroke-opacity="0.55" stroke-width="2"/>
  </g>
  <text x="108" y="395" fill="#F2FFFC" font-family="Georgia, 'Times New Roman', serif" font-size="116" font-weight="700" letter-spacing="-4">DeepSeek</text>
  <text x="112" y="482" fill="#7DF7DA" font-family="'Trebuchet MS', Verdana, sans-serif" font-size="54" font-weight="700" letter-spacing="8">V4 FLASH</text>
  <text x="116" y="552" fill="#B6D8D2" font-family="'Trebuchet MS', Verdana, sans-serif" font-size="30">GGUF Q3_K_M via llama.cpp</text>
  <text x="116" y="604" fill="#7F9994" font-family="'Trebuchet MS', Verdana, sans-serif" font-size="25">OpenAI-compatible API on port 9001</text>
  <defs>
    <radialGradient id="bg" cx="0" cy="0" r="1" gradientUnits="userSpaceOnUse" gradientTransform="translate(1160 376) rotate(142) scale(1038 854)">
      <stop stop-color="#0F6B62"/>
      <stop offset="0.44" stop-color="#0A2A2B"/>
      <stop offset="1" stop-color="#061616"/>
    </radialGradient>
  </defs>
</svg>
