<svg width="1600" height="900" viewBox="0 0 1600 900" fill="none" xmlns="http://www.w3.org/2000/svg">
  <defs>
    <linearGradient id="bg" x1="180" y1="120" x2="1420" y2="780" gradientUnits="userSpaceOnUse">
      <stop stop-color="#120F1F"/>
      <stop offset="0.45" stop-color="#2B1C38"/>
      <stop offset="1" stop-color="#6B3A2B"/>
    </linearGradient>
    <radialGradient id="glow" cx="0" cy="0" r="1" gradientUnits="userSpaceOnUse" gradientTransform="translate(1180 220) rotate(128) scale(480 300)">
      <stop stop-color="#FFC978" stop-opacity="0.85"/>
      <stop offset="1" stop-color="#FFC978" stop-opacity="0"/>
    </radialGradient>
    <linearGradient id="stack" x1="436" y1="220" x2="1120" y2="700" gradientUnits="userSpaceOnUse">
      <stop stop-color="#FFD987"/>
      <stop offset="1" stop-color="#FF8E4D"/>
    </linearGradient>
  </defs>
  <rect width="1600" height="900" rx="48" fill="url(#bg)"/>
  <rect width="1600" height="900" rx="48" fill="url(#glow)"/>

  <g opacity="0.15" stroke="#FFE0A9">
    <path d="M170 170H1430"/>
    <path d="M170 270H1430"/>
    <path d="M170 370H1430"/>
    <path d="M170 470H1430"/>
    <path d="M170 570H1430"/>
    <path d="M170 670H1430"/>
  </g>

  <g>
    <rect x="404" y="228" width="794" height="112" rx="26" fill="#1A1626" stroke="url(#stack)" stroke-width="6"/>
    <rect x="358" y="388" width="884" height="118" rx="28" fill="#231A2A" stroke="url(#stack)" stroke-width="6"/>
    <rect x="312" y="554" width="974" height="126" rx="32" fill="#2B1E2B" stroke="url(#stack)" stroke-width="6"/>

    <g fill="#FFE9BF">
      <rect x="468" y="266" width="164" height="34" rx="12"/>
      <rect x="696" y="266" width="122" height="34" rx="12" opacity="0.8"/>
      <rect x="878" y="266" width="198" height="34" rx="12" opacity="0.7"/>

      <rect x="430" y="430" width="212" height="36" rx="13"/>
      <rect x="712" y="430" width="160" height="36" rx="13" opacity="0.82"/>
      <rect x="958" y="430" width="198" height="36" rx="13" opacity="0.66"/>

      <rect x="392" y="600" width="228" height="38" rx="14"/>
      <rect x="706" y="600" width="180" height="38" rx="14" opacity="0.84"/>
      <rect x="984" y="600" width="220" height="38" rx="14" opacity="0.7"/>
    </g>
  </g>

  <g>
    <text x="198" y="780" fill="#FFF3DA" font-family="Segoe UI, Arial, sans-serif" font-size="80" font-weight="700">Granite 3.1</text>
    <text x="204" y="836" fill="#FFD39A" font-family="Segoe UI, Arial, sans-serif" font-size="30" font-weight="500">Enterprise long-context stacks for RAG, function calling, and multilingual assistants</text>
  </g>
</svg>
